<svg width="25" height="25" viewBox="0 0 25 25" fill="none" xmlns="http://www.w3.org/2000/svg">
<path d="M11.7546 22.4796C11.9848 22.614 12.1 22.6811 12.2624 22.716C12.3885 22.743 12.5725 22.743 12.6986 22.716C12.861 22.6811 12.9762 22.614 13.2064 22.4796C15.2324 21.2977 20.8005 17.5849 20.8005 12.4802V7.50646C20.8005 6.67497 20.8005 6.25923 20.6645 5.90185C20.5444 5.58614 20.3492 5.30445 20.0957 5.08111C19.8089 4.82829 19.4196 4.68232 18.641 4.39036L13.0648 2.29926C12.8486 2.21818 12.7405 2.17764 12.6292 2.16157C12.5306 2.14732 12.4304 2.14732 12.3318 2.16157C12.2205 2.17764 12.1124 2.21818 11.8962 2.29926L6.31996 4.39036C5.54141 4.68232 5.15213 4.82829 4.86526 5.08111C4.61184 5.30445 4.41663 5.58614 4.29649 5.90185C4.1605 6.25923 4.1605 6.67497 4.1605 7.50646V12.4802C4.1605 17.5849 9.72862 21.2977 11.7546 22.4796Z" fill="#7B8804"/>
<path d="M9.3605 11.9602L11.4405 14.0402L16.1205 9.36016M20.8005 12.4802C20.8005 17.5849 15.2324 21.2977 13.2064 22.4796C12.9762 22.614 12.861 22.6811 12.6986 22.716C12.5725 22.743 12.3885 22.743 12.2624 22.716C12.1 22.6811 11.9848 22.614 11.7546 22.4796C9.72862 21.2977 4.1605 17.5849 4.1605 12.4802V7.50646C4.1605 6.67497 4.1605 6.25923 4.29649 5.90185C4.41663 5.58614 4.61184 5.30445 4.86526 5.08111C5.15213 4.8283 5.54141 4.68232 6.31996 4.39036L11.8962 2.29926C12.1124 2.21818 12.2205 2.17764 12.3318 2.16157C12.4304 2.14732 12.5306 2.14732 12.6292 2.16157C12.7405 2.17764 12.8486 2.21818 13.0648 2.29926L18.641 4.39036C19.4196 4.68232 19.8089 4.8283 20.0957 5.08111C20.3492 5.30445 20.5444 5.58614 20.6645 5.90185C20.8005 6.25923 20.8005 6.67497 20.8005 7.50646V12.4802Z" stroke="#7B8804" stroke-width="2.08" stroke-linecap="round" stroke-linejoin="round"/>
<path d="M9.36 11.9599L11.44 14.0399L16.12 9.35986" stroke="white" stroke-width="1.56" stroke-linecap="round" stroke-linejoin="round"/>
</svg>
